<svg width="136" height="81" viewBox="0 0 136 81" fill="none" xmlns="http://www.w3.org/2000/svg">
<path d="M38.1307 29.3867C38.1307 31.0518 38.3107 32.4019 38.6257 33.392C38.9857 34.382 39.4358 35.4621 40.0658 36.6322C40.2908 36.9922 40.3808 37.3522 40.3808 37.6672C40.3808 38.1173 40.1108 38.5673 39.5258 39.0173L36.6906 40.9074C36.2856 41.1774 35.8806 41.3124 35.5205 41.3124C35.0705 41.3124 34.6205 41.0874 34.1705 40.6824C33.5404 40.0074 33.0004 39.2873 32.5504 38.5673C32.1003 37.8022 31.6503 36.9472 31.1553 35.9121C27.6451 40.0524 23.2348 42.1225 17.9245 42.1225C14.1443 42.1225 11.1291 41.0424 8.92395 38.8823C6.71882 36.7222 5.59375 33.842 5.59375 30.2418C5.59375 26.4166 6.94383 23.3114 9.68899 20.9712C12.4342 18.6311 16.0794 17.461 20.7147 17.461C22.2447 17.461 23.8198 17.596 25.4849 17.8211C27.15 18.0461 28.8601 18.4061 30.6602 18.8111V15.5259C30.6602 12.1057 29.9402 9.72057 28.5451 8.32549C27.105 6.93041 24.6749 6.25537 21.2097 6.25537C19.6346 6.25537 18.0145 6.43538 16.3494 6.8404C14.6843 7.24543 13.0642 7.74046 11.4891 8.37049C10.7691 8.68551 10.229 8.86552 9.91401 8.95553C9.59899 9.04553 9.37398 9.09054 9.19396 9.09054C8.56393 9.09054 8.24891 8.64051 8.24891 7.69546V5.49032C8.24891 4.77028 8.33891 4.23025 8.56393 3.91523C8.78894 3.60021 9.19396 3.28519 9.824 2.97018C11.3991 2.16013 13.2892 1.48509 15.4943 0.945056C17.6995 0.360021 20.0396 0.0900053 22.5148 0.0900053C27.8701 0.0900053 31.7853 1.30508 34.3055 3.73522C36.7806 6.16536 38.0407 9.85558 38.0407 14.8059V29.3867H38.1307ZM19.8596 36.2271C21.3447 36.2271 22.8748 35.9571 24.4949 35.4171C26.115 34.8771 27.5551 33.887 28.7701 32.5369C29.4902 31.6819 30.0302 30.7368 30.3002 29.6568C30.5702 28.5767 30.7503 27.2716 30.7503 25.7415V23.8514C29.4452 23.5364 28.0501 23.2664 26.61 23.0864C25.1699 22.9064 23.7748 22.8163 22.3798 22.8163C19.3646 22.8163 17.1594 23.4014 15.6744 24.6165C14.1893 25.8315 13.4692 27.5416 13.4692 29.7918C13.4692 31.9069 14.0093 33.482 15.1343 34.562C16.2144 35.6871 17.7895 36.2271 19.8596 36.2271ZM55.9968 41.0874C55.1867 41.0874 54.6467 40.9524 54.2867 40.6374C53.9266 40.3674 53.6116 39.7374 53.3416 38.8823L42.766 4.09524C42.496 3.19519 42.3609 2.61015 42.3609 2.29514C42.3609 1.57509 42.721 1.17007 43.441 1.17007H47.8513C48.7063 1.17007 49.2914 1.30508 49.6064 1.6201C49.9664 1.89011 50.2364 2.52015 50.5064 3.3752L58.0669 33.167L65.0873 3.3752C65.3123 2.47515 65.5823 1.89011 65.9423 1.6201C66.3024 1.35008 66.9324 1.17007 67.7425 1.17007H71.3427C72.1977 1.17007 72.7828 1.30508 73.1428 1.6201C73.5028 1.89011 73.8178 2.52015 73.9978 3.3752L81.1083 33.527L88.8937 3.3752C89.1637 2.47515 89.4788 1.89011 89.7938 1.6201C90.1538 1.35008 90.7388 1.17007 91.5489 1.17007H95.7341C96.4542 1.17007 96.8592 1.53009 96.8592 2.29514C96.8592 2.52015 96.8142 2.74516 96.7692 3.01518C96.7242 3.28519 96.6342 3.64522 96.4542 4.14024L85.6085 38.9273C85.3385 39.8274 85.0235 40.4124 84.6635 40.6824C84.3035 40.9524 83.7184 41.1324 82.9534 41.1324H79.0831C78.2281 41.1324 77.643 40.9974 77.283 40.6824C76.923 40.3674 76.608 39.7824 76.428 38.8823L69.4526 9.85558L62.5222 38.8373C62.2971 39.7374 62.0271 40.3224 61.6671 40.6374C61.3071 40.9524 60.677 41.0874 59.867 41.0874H55.9968ZM113.825 42.3025C111.485 42.3025 109.145 42.0325 106.895 41.4925C104.645 40.9524 102.89 40.3674 101.719 39.6923C100.999 39.2873 100.504 38.8373 100.324 38.4323C100.144 38.0272 100.054 37.5772 100.054 37.1722V34.8771C100.054 33.932 100.414 33.482 101.089 33.482C101.359 33.482 101.629 33.527 101.899 33.617C102.17 33.707 102.575 33.887 103.025 34.067C104.555 34.7421 106.22 35.2821 107.975 35.6421C109.775 36.0021 111.53 36.1821 113.33 36.1821C116.165 36.1821 118.37 35.6871 119.901 34.6971C121.431 33.707 122.241 32.2669 122.241 30.4218C122.241 29.1617 121.836 28.1267 121.026 27.2716C120.216 26.4166 118.686 25.6515 116.48 24.9315L109.955 22.9064C106.67 21.8713 104.24 20.3412 102.755 18.3161C101.269 16.336 100.504 14.1308 100.504 11.7907C100.504 9.90059 100.909 8.23549 101.719 6.7954C102.53 5.35532 103.61 4.09524 104.96 3.10518C106.31 2.07012 107.84 1.30508 109.64 0.765045C111.44 0.225013 113.33 0 115.31 0C116.3 0 117.335 0.0450026 118.325 0.180011C119.361 0.315019 120.306 0.495029 121.251 0.67504C122.151 0.900053 123.006 1.12507 123.816 1.39508C124.626 1.6651 125.256 1.93511 125.706 2.20513C126.336 2.56515 126.786 2.92517 127.056 3.3302C127.326 3.69022 127.461 4.18525 127.461 4.81528V6.93041C127.461 7.87547 127.101 8.37049 126.426 8.37049C126.066 8.37049 125.481 8.19048 124.716 7.83046C122.151 6.66039 119.271 6.07536 116.075 6.07536C113.51 6.07536 111.485 6.48038 110.09 7.33543C108.695 8.19048 107.975 9.49556 107.975 11.3407C107.975 12.6007 108.425 13.6808 109.325 14.5359C110.225 15.3909 111.89 16.246 114.275 17.011L120.666 19.0361C123.906 20.0712 126.246 21.5113 127.641 23.3564C129.036 25.2015 129.711 27.3166 129.711 29.6568C129.711 31.5919 129.306 33.347 128.541 34.8771C127.731 36.4072 126.651 37.7572 125.256 38.8373C123.861 39.9624 122.196 40.7724 120.261 41.3574C118.235 41.9875 116.12 42.3025 113.825 42.3025Z" fill="#ACA8FF"/>
<path fill-rule="evenodd" clip-rule="evenodd" d="M122.332 64.1736C107.526 75.1093 86.0145 80.9146 67.5184 80.9146C41.5969 80.9146 18.2405 71.3291 0.599443 55.3981C-0.79564 54.138 0.464435 52.4279 2.12953 53.418C21.2107 64.4887 44.7471 71.1941 69.0935 71.1941C85.5195 71.1941 103.566 67.7739 120.172 60.7534C122.647 59.6284 124.762 62.3735 122.332 64.1736Z" fill="#ACA8FF"/>
<path fill-rule="evenodd" clip-rule="evenodd" d="M128.496 57.1532C126.606 54.7231 115.986 55.9832 111.17 56.5682C109.73 56.7482 109.505 55.4881 110.81 54.5431C119.271 48.6027 133.177 50.3128 134.797 52.2929C136.417 54.3181 134.347 68.2239 126.426 74.8843C125.211 75.9193 124.041 75.3793 124.581 74.0292C126.381 69.574 130.386 59.5384 128.496 57.1532Z" fill="#ACA8FF"/>
</svg>
