<svg width="111" height="79" viewBox="0 0 111 79" fill="none" xmlns="http://www.w3.org/2000/svg">
<path d="M32.086 1.9075L0.280424 65.188C-0.0339653 65.8158 -0.0862765 66.5428 0.134984 67.2091C0.356244 67.8755 0.832977 68.4268 1.46045 68.7419L18.6006 77.3556C18.9115 77.5121 19.2501 77.6059 19.5971 77.6316C19.9442 77.6572 20.2929 77.6142 20.6234 77.5051C20.9538 77.3959 21.2595 77.2227 21.523 76.9954C21.7865 76.7681 22.0027 76.491 22.1591 76.1801L53.96 12.8996C54.1164 12.5885 54.2099 12.2497 54.2353 11.9024C54.2606 11.5551 54.2172 11.2063 54.1076 10.8758C53.998 10.5453 53.8244 10.2397 53.5966 9.97635C53.3688 9.71303 53.0913 9.4972 52.78 9.34119L35.6398 0.732065C35.3292 0.575158 34.9906 0.481212 34.6435 0.45563C34.2965 0.430047 33.9478 0.473334 33.6175 0.583C33.2872 0.692666 32.9819 0.866546 32.719 1.09464C32.4562 1.32274 32.2411 1.60055 32.086 1.91209V1.9075Z" fill="#ACA8FF"/>
<path d="M88.3642 0.9729H107.552C109.012 0.9729 110.201 2.1667 110.201 3.62221V74.4466C110.201 75.1497 109.923 75.824 109.426 76.3216C108.929 76.8192 108.255 77.0993 107.552 77.1005H88.3642C87.6611 77.0993 86.9872 76.8192 86.4905 76.3216C85.9938 75.824 85.7148 75.1497 85.7148 74.4466V3.62681C85.7148 2.1667 86.9041 0.9729 88.3642 0.9729Z" fill="#ACA8FF"/>
<path d="M58.8441 2.13669L45.2302 71.1153C45.0938 71.8033 45.2363 72.5173 45.6264 73.1003C46.0164 73.6832 46.6221 74.0874 47.3101 74.2238L66.1125 78.0164C67.5542 78.3056 68.9592 77.3736 69.2393 75.9318L82.8486 6.9578C82.9837 6.2699 82.8407 5.55649 82.4508 4.97385C82.061 4.39121 81.4561 3.98685 80.7686 3.84933L61.9617 0.0521347C61.6198 -0.0167218 61.2676 -0.0173783 60.9254 0.0502025C60.5832 0.117783 60.2577 0.252271 59.9676 0.445949C59.6776 0.639627 59.4286 0.888682 59.235 1.17882C59.0414 1.46896 58.9116 1.79448 58.8441 2.13669Z" fill="#ACA8FF"/>
</svg>
