<svg width="328" height="60" viewBox="0 0 328 60" fill="none" xmlns="http://www.w3.org/2000/svg">
<g clip-path="url(#clip0_177_110)">
<path d="M6.78093 47.0521C5.57592 47.0547 4.39182 46.7375 3.34957 46.1327C2.30733 45.5279 1.44431 44.6573 0.848682 43.6097C0.26217 42.5696 -0.030339 41.3895 0.00248831 40.1959C0.0353156 39.0023 0.392242 37.84 1.03504 36.8337L13.2515 17.6497C13.8768 16.6187 14.7645 15.7721 15.824 15.1964C16.8835 14.6207 18.0769 14.3366 19.2821 14.373C20.4865 14.4018 21.6615 14.7502 22.687 15.3823C23.7125 16.0144 24.5517 16.9077 25.1186 17.9706C26.2574 20.1241 26.1151 22.7149 24.7511 24.7363L12.5424 43.9203C11.9232 44.8851 11.0706 45.6779 10.0634 46.2254C9.0563 46.7729 7.92724 47.0572 6.78093 47.0521Z" fill="#ACA8FF"/>
<path d="M27.7354 47.052C25.2714 47.052 23.0041 45.7346 21.8135 43.6174C21.2283 42.5801 20.9365 41.4031 20.9693 40.2126C21.0021 39.0221 21.3584 37.863 21.9998 36.8595L34.193 17.7195C34.8091 16.6739 35.6937 15.8123 36.755 15.2238C37.8163 14.6354 39.0157 14.3416 40.2288 14.3729C42.7135 14.4272 44.9653 15.8171 46.1041 17.9912C47.2352 20.1654 47.0695 22.7717 45.6641 24.788L33.4735 43.928C32.8563 44.8886 32.0071 45.6784 31.0043 46.2244C30.0014 46.7703 28.8772 47.055 27.7354 47.052Z" fill="#ACA8FF"/>
<path d="M48.2211 47.2123C51.6946 47.2123 54.5105 44.4555 54.5105 41.0549C54.5105 37.6542 51.6946 34.8975 48.2211 34.8975C44.7475 34.8975 41.9316 37.6542 41.9316 41.0549C41.9316 44.4555 44.7475 47.2123 48.2211 47.2123Z" fill="#ACA8FF"/>
<path d="M321.451 35.2545C323.351 35.2545 324.487 36.6056 324.487 38.8185V46.4021H327.068V38.6451C327.068 34.8818 325.295 32.6999 321.961 32.6999C320.657 32.6999 318.586 33.0571 317.352 35.4564C317.065 34.7487 316.591 34.1319 315.982 33.6717C315.373 33.2114 314.65 32.9248 313.891 32.8423C313.413 32.7548 312.927 32.7261 312.442 32.7569C311.381 32.8423 309.491 33.5023 308.785 34.9983V32.9872H306.201V46.4021H308.785V39.1627C308.785 36.3467 310.627 35.2545 312.473 35.2545C314.202 35.2545 315.338 36.5771 315.338 38.79V46.4021H317.905V39.1627C317.905 36.9213 319.251 35.2286 321.451 35.2545ZM296.721 44.1606C297.901 44.1865 299.04 43.7155 299.865 42.8613C300.694 42.0072 301.134 40.8451 301.09 39.6519C301.09 36.9498 299.102 35.2545 296.721 35.2545C294.337 35.2545 292.352 36.9498 292.352 39.6519C292.305 40.8425 292.745 42.002 293.568 42.8536C294.391 43.7077 295.525 44.1813 296.7 44.1606H296.721ZM296.721 46.6764C292.947 46.6764 289.797 43.8889 289.797 39.6364C289.797 35.3839 292.947 32.6844 296.721 32.6844C300.494 32.6844 303.67 35.3839 303.67 39.6364C303.67 43.8889 300.476 46.6894 296.703 46.6894L296.721 46.6764ZM276.507 39.6364L276.481 39.6519C276.481 35.3994 279.713 32.6999 283.513 32.6844C284.467 32.6659 285.415 32.848 286.295 33.219C287.174 33.5899 287.966 34.1414 288.62 34.8378L286.663 36.5046C286.247 36.0965 285.755 35.7748 285.214 35.558C284.674 35.3412 284.095 35.2337 283.513 35.2416C281.132 35.2416 279.061 36.9369 279.061 39.6364C279.061 41.4611 280.146 43.1046 281.81 43.8035C283.474 44.5023 285.389 44.114 286.663 42.8251L288.648 44.4919C287.993 45.1955 287.197 45.7535 286.313 46.1298C285.428 46.5061 284.474 46.6923 283.513 46.6764C279.742 46.6764 276.507 43.8889 276.507 39.6364ZM268.242 43.8268C268.24 43.5922 268.283 43.3595 268.37 43.1417C268.458 42.924 268.587 42.7256 268.751 42.5578C268.915 42.3901 269.11 42.2563 269.326 42.164C269.541 42.0717 269.773 42.0229 270.007 42.0202C270.242 42.0229 270.474 42.0717 270.689 42.164C270.905 42.2563 271.1 42.3901 271.264 42.5578C271.428 42.7256 271.557 42.924 271.645 43.1417C271.732 43.3595 271.775 43.5922 271.773 43.8268C271.75 44.281 271.554 44.7093 271.226 45.0243C270.898 45.3393 270.462 45.5174 270.007 45.5221C269.553 45.5174 269.117 45.3393 268.789 45.0243C268.461 44.7093 268.265 44.281 268.242 43.8268Z" fill="#ACA8FF"/>
<path fill-rule="evenodd" clip-rule="evenodd" d="M275.305 15.9332H266.114L259.672 32.5419L253.263 15.9332H244.072L255.246 42.178L248.296 59.5295H257.42L275.305 15.9332ZM219.409 30.5309C219.409 34.7238 223.074 37.4829 226.674 37.4829C230.212 37.4829 233.688 34.9154 233.688 30.5283C233.688 26.1412 230.212 23.5711 226.674 23.5711C223.074 23.5711 219.409 26.3353 219.409 30.5309ZM233.688 45.1855V41.8648C231.825 44.686 227.476 45.7523 225.245 45.7523C217.859 45.7523 210.469 39.9288 210.469 30.5283C210.469 21.1304 217.856 15.3069 225.245 15.3069C227.106 15.3069 231.455 15.928 233.688 19.1892V15.9436H242.255V45.1907L233.688 45.1855ZM208.031 45.1855H199.464V41.5516C198.033 44.2434 194.562 45.8119 190.959 45.8119C183.507 45.8119 176.926 39.8615 176.926 30.6474C176.926 21.2598 183.507 15.3017 190.959 15.3017C194.557 15.3017 198.038 16.8029 199.464 19.4972V0H208.031V45.1855ZM199.278 30.4636C199.278 26.0791 196.112 23.509 192.574 23.509C188.909 23.509 185.865 26.2655 185.865 30.4636C185.865 34.7963 188.909 37.5398 192.571 37.5398C196.177 37.545 199.278 34.6617 199.278 30.4636ZM155.743 29.7078C155.743 25.2612 158.042 23.7575 161.083 23.7575C164 23.7575 166.112 25.6986 166.112 29.581V45.1803H174.741V27.7045C174.741 19.3756 170.641 15.3017 164.122 15.3017C160.708 15.3017 157.294 17.2429 155.741 20.1883V15.9332H147.117V45.1803H155.743V29.7078ZM129.594 45.6824C121.4 45.6824 114.564 39.67 114.564 30.461C114.564 21.2469 121.392 15.2939 129.594 15.2939C137.797 15.2939 144.684 21.2469 144.684 30.461C144.684 39.6751 137.789 45.6824 129.594 45.6824ZM129.594 37.1671C133.192 37.1671 136.176 34.5323 136.176 30.4636C136.176 26.5165 133.195 23.8222 129.594 23.8222C128.728 23.8086 127.867 23.9716 127.065 24.3014C126.263 24.6311 125.537 25.1206 124.93 25.74C124.32 26.3628 123.842 27.1019 123.523 27.9134C123.204 28.7248 123.052 29.5921 123.075 30.4636C123.077 34.5375 126.056 37.1671 129.594 37.1671ZM99.0946 23.76C101.639 23.76 103.875 25.7659 103.875 29.5836V45.1855H112.442V28.5742C112.442 19.7431 108.148 15.2965 101.266 15.2965C99.2214 15.2965 95.3701 15.9177 92.5748 20.4937C90.9597 17.1109 87.8564 15.356 83.2701 15.356C81.6777 15.3479 80.1167 15.7986 78.7737 16.6542C77.4307 17.5097 76.3625 18.734 75.6969 20.1805V15.9358H67.0625V45.1829H75.6891V29.7078C75.6891 25.2612 78.1117 23.7575 80.7181 23.7575C83.2028 23.7575 85.4338 25.6986 85.4985 29.3946V45.1829H94.1277V29.7078C94.1277 25.4553 96.364 23.76 99.0946 23.76Z" fill="#ACA8FF"/>
</g>
<defs>
<clipPath id="clip0_177_110">
<rect width="327.068" height="59.5295" fill="white"/>
</clipPath>
</defs>
</svg>
