<svg width="144" height="76" viewBox="0 0 144 76" fill="none" xmlns="http://www.w3.org/2000/svg">
<path fill-rule="evenodd" clip-rule="evenodd" d="M128.494 30.2339C121.45 30.2339 115.531 25.416 113.853 18.8962H96.5268C92.8319 18.8962 89.6788 21.5675 89.0716 25.2119L88.4499 28.9401C87.8604 32.4794 86.0696 35.5595 83.5375 37.7924C86.0696 40.0253 87.8604 43.1054 88.4499 46.6446L89.0716 50.3728C89.6788 54.0173 92.8319 56.6886 96.5268 56.6886H98.7364C100.414 50.1688 106.333 45.3509 113.377 45.3509C121.726 45.3509 128.494 52.1188 128.494 60.4678C128.494 68.8168 121.726 75.5848 113.377 75.5848C106.333 75.5848 100.414 70.7669 98.7364 64.247H96.5268C89.1371 64.247 82.8308 58.9045 81.6158 51.6156L80.9941 47.8874C80.3869 44.2429 77.2338 41.5716 73.5389 41.5716H67.5501C65.8721 48.0914 59.9532 52.9093 52.9093 52.9093C45.8655 52.9093 39.9465 48.0914 38.2686 41.5716H29.7577C28.0797 48.0914 22.1608 52.9093 15.117 52.9093C6.76811 52.9093 0 46.1413 0 37.7924C0 29.4434 6.76811 22.6754 15.117 22.6754C22.1608 22.6754 28.0797 27.4933 29.7577 34.0131H38.2686C39.9465 27.4933 45.8655 22.6754 52.9093 22.6754C59.9532 22.6754 65.8721 27.4933 67.5501 34.0131H73.5389C77.2338 34.0131 80.3869 31.3418 80.9941 27.6974L81.6158 23.9692C82.8308 16.6803 89.1371 11.3377 96.5268 11.3377H113.853C115.531 4.8179 121.45 0 128.494 0C136.843 0 143.611 6.76798 143.611 15.117C143.611 23.4659 136.843 30.2339 128.494 30.2339ZM128.494 22.6754C132.668 22.6754 136.053 19.2911 136.053 15.117C136.053 10.9428 132.668 7.55848 128.494 7.55848C124.32 7.55848 120.936 10.9428 120.936 15.117C120.936 19.2911 124.32 22.6754 128.494 22.6754ZM15.117 45.3509C19.2911 45.3509 22.6754 41.9665 22.6754 37.7924C22.6754 33.6182 19.2911 30.2339 15.117 30.2339C10.9425 30.2339 7.55848 33.6182 7.55848 37.7924C7.55848 41.9665 10.9425 45.3509 15.117 45.3509ZM60.4678 37.7924C60.4678 41.9665 57.0835 45.3509 52.9093 45.3509C48.7352 45.3509 45.3509 41.9665 45.3509 37.7924C45.3509 33.6182 48.7352 30.2339 52.9093 30.2339C57.0835 30.2339 60.4678 33.6182 60.4678 37.7924ZM120.936 60.4678C120.936 64.642 117.551 68.0263 113.377 68.0263C109.203 68.0263 105.819 64.642 105.819 60.4678C105.819 56.2936 109.203 52.9093 113.377 52.9093C117.551 52.9093 120.936 56.2936 120.936 60.4678Z" fill="#ACA8FF"/>
</svg>
