<svg width="98" height="98" viewBox="0 0 98 98" fill="none" xmlns="http://www.w3.org/2000/svg">
<g clip-path="url(#clip0_177_92)">
<path d="M48.559 0.0275879C23.7544 0.0275879 25.3031 10.7843 25.3031 10.7843L25.3307 21.9287H49.0013V25.2745H15.9291C15.9291 25.2745 0.0566406 23.4744 0.0566406 48.502C0.0566406 73.5304 13.9105 72.6428 13.9105 72.6428H22.1785V61.0287C22.1785 61.0287 21.7327 47.1748 35.8112 47.1748H59.2882C59.2882 47.1748 72.4783 47.3879 72.4783 34.427V12.9969C72.4783 12.9969 74.4815 0.0275879 48.559 0.0275879ZM35.507 7.52192C36.0664 7.52142 36.6203 7.63122 37.1372 7.84504C37.6541 8.05886 38.1237 8.37251 38.5192 8.76803C38.9148 9.16355 39.2284 9.63319 39.4422 10.1501C39.6561 10.6669 39.7659 11.2209 39.7654 11.7802C39.7659 12.3396 39.6561 12.8936 39.4422 13.4104C39.2284 13.9273 38.9148 14.3969 38.5192 14.7924C38.1237 15.188 37.6541 15.5016 37.1372 15.7154C36.6203 15.9293 36.0664 16.0391 35.507 16.0386C34.9477 16.0391 34.3937 15.9293 33.8769 15.7154C33.36 15.5016 32.8904 15.188 32.4948 14.7924C32.0993 14.3969 31.7857 13.9273 31.5718 13.4104C31.358 12.8936 31.2482 12.3396 31.2487 11.7802C31.2482 11.2209 31.358 10.6669 31.5718 10.1501C31.7857 9.63319 32.0993 9.16355 32.4948 8.76803C32.8904 8.37251 33.36 8.05886 33.8769 7.84504C34.3937 7.63122 34.9477 7.52142 35.507 7.52192Z" fill="#ACA8FF"/>
<path d="M49.2622 97.2282C74.0668 97.2282 72.518 86.4715 72.518 86.4715L72.4905 75.3276H48.8195V71.9817H81.8917C81.8917 71.9817 97.7641 73.7819 97.7641 48.7534C97.7641 23.7254 83.9103 24.613 83.9103 24.613H75.6423V36.2268C75.6423 36.2268 76.088 50.0807 62.0096 50.0807H38.5326C38.5326 50.0807 25.3425 49.8676 25.3425 62.8288V84.2593C25.3425 84.2593 23.3396 97.2282 49.2618 97.2282H49.2622ZM62.3141 89.7347C61.7548 89.7352 61.2008 89.6254 60.684 89.4116C60.1671 89.1977 59.6974 88.8841 59.3019 88.4886C58.9064 88.093 58.5928 87.6234 58.3789 87.1065C58.1651 86.5897 58.0553 86.0357 58.0558 85.4764C58.0553 84.917 58.165 84.363 58.3788 83.8461C58.5926 83.3291 58.9063 82.8595 59.3018 82.4639C59.6973 82.0683 60.167 81.7547 60.6839 81.5408C61.2008 81.327 61.7547 81.2172 62.3141 81.2177C62.8735 81.2172 63.4274 81.327 63.9443 81.5408C64.4612 81.7546 64.9308 82.0682 65.3263 82.4638C65.7219 82.8593 66.0355 83.3289 66.2493 83.8458C66.4632 84.3627 66.573 84.9166 66.5725 85.476C66.573 86.0353 66.4632 86.5893 66.2493 87.1062C66.0355 87.623 65.7219 88.0927 65.3263 88.4882C64.9308 88.8837 64.4612 89.1973 63.9443 89.4112C63.4274 89.625 62.8735 89.7352 62.3141 89.7347Z" fill="#ACA8FF"/>
</g>
<defs>
<clipPath id="clip0_177_92">
<rect width="97.9543" height="97.5625" fill="white"/>
</clipPath>
</defs>
</svg>
