<svg width="91" height="91" viewBox="0 0 91 91" fill="none" xmlns="http://www.w3.org/2000/svg">
<path d="M0 45.2416V0H90.4833V90.4833H0" fill="#ACA8FF"/>
<path d="M19.8379 45.4001V49.0873H31.6007V82.5661H39.9478V49.0873H51.7106V45.468C51.7106 43.4321 51.7106 41.7808 51.6201 41.7356C51.6201 41.6677 44.4493 41.6451 35.7403 41.6451L19.9058 41.7129V45.4227L19.8379 45.4001ZM72.7027 41.6224C75.0101 42.1653 76.7745 43.2059 78.3579 44.8572C79.1949 45.7621 80.439 47.3455 80.5295 47.7527C80.5295 47.8884 76.6161 50.535 74.2409 52.0054C74.1505 52.0733 73.7885 51.6887 73.4266 51.1006C72.2503 49.4266 71.0514 48.7028 69.1739 48.567C66.4594 48.3861 64.6497 49.8112 64.6497 52.1864C64.6497 52.9102 64.7854 53.3174 65.0569 53.9056C65.6677 55.1497 66.7987 55.8962 70.3049 57.4344C76.7745 60.2168 79.5794 62.049 81.276 64.6731C83.1988 67.6138 83.6286 72.2284 82.3392 75.6894C80.8915 79.4671 77.3626 82.0232 72.3182 82.8602C70.7347 83.1316 67.1154 83.0864 65.4188 82.7923C61.7995 82.1137 58.3385 80.304 56.2122 77.9741C55.3752 77.0693 53.7691 74.6488 53.8596 74.4905L54.7192 73.9476L58.1123 71.9796L60.6685 70.4866L61.2566 71.2783C62.0031 72.4546 63.677 74.0381 64.6497 74.581C67.5904 76.0966 71.5264 75.893 73.4718 74.1286C74.3088 73.3595 74.6707 72.5451 74.6707 71.4141C74.6707 70.3735 74.5124 69.8985 73.9921 69.1067C73.2682 68.1114 71.8205 67.2971 67.7488 65.4874C63.0663 63.4968 61.0756 62.23 59.2207 60.2846C58.1575 59.1083 57.1849 57.2761 56.7324 55.7605C56.3931 54.4484 56.28 51.2363 56.5967 49.9469C57.5694 45.4227 60.9851 42.2558 65.8712 41.351C67.4547 41.0343 71.1871 41.17 72.748 41.5772L72.7027 41.6224Z" fill="#6964CE"/>
</svg>
