<svg width="233" height="63" viewBox="0 0 233 63" fill="none" xmlns="http://www.w3.org/2000/svg">
<path d="M54.5763 43.1594L54.543 43.0559L75.2094 24.136V15.0202H42.0538V24.136H61.8583L61.8907 24.2233L41.4258 43.1594V52.2752H75.5423V43.1603L54.5763 43.1594ZM95.8975 14.1528C92.0733 14.1528 88.9564 14.7287 86.5477 15.8831C84.3036 16.8885 82.4133 18.5449 81.1219 20.6376C79.8866 22.7438 79.1108 25.0874 78.8455 27.5147L88.9052 28.9292C89.2696 26.785 89.9975 25.2661 91.089 24.3708C92.3301 23.4346 93.8595 22.9616 95.4125 23.0337C97.4541 23.0337 98.9352 23.579 99.8556 24.6714C100.768 25.7628 101.231 27.2745 101.231 29.2675V30.2609H91.5586C86.635 30.2609 83.0979 31.3523 80.9465 33.5361C78.796 35.719 77.7225 38.602 77.7261 42.1831C77.7261 45.8507 78.7996 48.5807 80.9474 50.3713C83.0943 52.1609 85.7946 53.0508 89.0473 53.04C93.0829 53.04 96.1881 51.6517 98.3602 48.874C99.6431 47.1679 100.559 45.2149 101.051 43.1378H101.417L102.803 52.2536H111.919V29.1685C111.919 24.3978 110.662 20.7024 108.147 18.0831C105.633 15.462 101.549 14.1519 95.8975 14.1519V14.1528ZM99.0863 42.6078C97.6395 43.8145 95.7454 44.4146 93.387 44.4146C91.4435 44.4146 90.0938 44.0745 89.3371 43.3943C88.9683 43.0724 88.6749 42.6733 88.4777 42.2253C88.2805 41.7772 88.1844 41.2913 88.1961 40.802C88.1747 40.3403 88.2473 39.8791 88.4098 39.4465C88.5722 39.0138 88.8209 38.6187 89.1409 38.2852C89.4867 37.9607 89.8947 37.7097 90.3403 37.5473C90.7858 37.3849 91.2597 37.3146 91.7332 37.3405H101.248V37.9685C101.267 38.8558 101.082 39.7357 100.707 40.5403C100.332 41.3448 99.7779 42.0516 99.0863 42.6078ZM167.04 15.0202H156.271V52.2806H167.04V15.0202ZM230.628 15.0202C227.586 15.0202 225.188 16.0936 223.434 18.2414C222.175 19.7837 221.218 22.0638 220.563 25.0799H220.246L218.838 15.0202H209.64V52.2752H220.411V33.1699C220.411 30.7612 220.974 28.9139 222.102 27.6299C223.231 26.345 225.312 25.7025 228.347 25.7025H232.435V15.0202H230.628ZM198.952 16.2376C196.438 14.7422 193.266 13.9962 189.438 13.9998C183.411 13.9998 178.695 15.7148 175.289 19.1466C171.882 22.5784 170.18 27.3096 170.18 33.34C170.093 36.9855 170.889 40.5979 172.5 43.8694C173.974 46.7847 176.27 49.2043 179.104 50.8292C181.957 52.4777 185.35 53.3037 189.285 53.3073C192.687 53.3073 195.53 52.7836 197.811 51.7353C199.956 50.794 201.824 49.3185 203.237 47.4496C204.582 45.6154 205.581 43.551 206.184 41.358L196.906 38.7603C196.514 40.1862 195.762 41.4871 194.722 42.5377C193.673 43.585 191.917 44.1096 189.454 44.1096C186.525 44.1096 184.341 43.271 182.904 41.5929C181.86 40.3809 181.206 38.6506 180.917 36.4074H206.326C206.431 35.3591 206.485 34.48 206.485 33.771V31.4504C206.546 28.334 205.903 25.244 204.602 22.4111C203.384 19.8307 201.414 17.6788 198.952 16.2376ZM189.127 22.8808C193.493 22.8808 195.969 25.0295 196.555 29.3278H181.108C181.353 27.8935 181.947 26.5415 182.838 25.3912C184.254 23.714 186.35 22.8772 189.127 22.8808ZM161.773 0.00354494C160.963 -0.0242099 160.155 0.111242 159.399 0.401845C158.642 0.692449 157.951 1.13227 157.368 1.69516C156.793 2.26407 156.343 2.94591 156.045 3.69765C155.747 4.44939 155.608 5.25469 155.637 6.06275C155.608 6.87605 155.747 7.68665 156.045 8.44388C156.343 9.20112 156.794 9.88869 157.37 10.4636C157.946 11.039 158.634 11.4895 159.392 11.7869C160.149 12.0843 160.96 12.2223 161.773 12.1921C162.581 12.2226 163.387 12.0844 164.139 11.7865C164.89 11.4886 165.572 11.0375 166.14 10.4618C166.704 9.88035 167.144 9.19071 167.434 8.4345C167.724 7.67828 167.857 6.87117 167.827 6.06185C167.865 5.25758 167.734 4.45432 167.443 3.70348C167.152 2.95263 166.708 2.27074 166.139 1.70145C165.57 1.13169 164.888 0.686891 164.137 0.395468C163.386 0.104044 162.583 -0.0275998 161.778 0.0089437L161.773 0.00354494ZM139.524 13.9998C135.855 13.9998 132.908 15.1516 130.681 17.455C129.031 19.161 127.822 21.7092 127.051 25.097H126.707L125.298 15.0373H116.101V62.9854H126.87V43.2359H127.263C127.592 44.5529 128.053 45.8333 128.639 47.0573C129.55 49.0514 131.045 50.7223 132.925 51.8496C134.874 52.9136 137.069 53.4429 139.289 53.3838C143.798 53.3838 147.231 51.6274 149.589 48.1164C151.947 44.6045 153.127 39.7042 153.127 33.4156C153.127 27.342 151.985 22.5874 149.704 19.152C147.422 15.7175 144.029 13.9998 139.524 13.9998ZM140.615 40.9981C139.359 42.8175 137.395 43.7272 134.72 43.7272C133.617 43.778 132.518 43.5654 131.514 43.107C130.51 42.6485 129.629 41.9573 128.945 41.0908C127.55 39.3407 126.856 36.9436 126.86 33.9014V33.1924C126.86 30.1025 127.555 27.737 128.945 26.0957C130.334 24.4545 132.261 23.6429 134.72 23.6609C137.443 23.6609 139.42 24.5247 140.654 26.2541C141.888 27.9826 142.504 30.3932 142.504 33.4866C142.512 36.6854 141.886 39.1895 140.626 40.9981H140.615Z" fill="#ACA8FF"/>
<path d="M37.2604 43.1597H0V52.2872H37.2604V43.1597Z" fill="#ACA8FF"/>
</svg>
